<?xml version="1.0" encoding="utf-8"?>
<!-- Generator: Adobe Illustrator 19.2.1, SVG Export Plug-In . SVG Version: 6.00 Build 0)  -->
<svg version="1.1" id="Layer_1" xmlns="http://www.w3.org/2000/svg" xmlns:xlink="http://www.w3.org/1999/xlink" x="0px" y="0px"
	 viewBox="0 0 500 350" style="enable-background:new 0 0 500 350;" xml:space="preserve">
<style type="text/css">
	.st0{fill:#57595A;}
	.st1{fill:#2FBCD3;}
</style>
<path class="st0" d="M68.2,287.1c-12,0-22-3.9-29.8-11.6c-7.7-7.7-11.7-18.1-11.7-31c0-12.9,3.9-23.3,11.7-31
	c7.7-7.7,17.8-11.6,29.8-11.6c10.1,0,19.5,2.6,28,7.7l0.2,0.1v11.3h-1.2l-0.1-0.1c-7.9-5.2-16.8-7.9-26.3-7.9
	c-9.5,0-17,2.9-22.4,8.8c-5.4,5.8-8.1,13.4-8.1,22.6c0,9.2,2.7,16.8,8.1,22.6c5.3,5.8,12.9,8.8,22.4,8.8c9.6,0,18.4-2.7,26.3-7.9
	l0.1-0.1h1.2v11.3l-0.2,0.1C87.7,284.6,78.3,287.1,68.2,287.1"/>
<rect x="109.7" y="199.5" class="st0" width="11.6" height="86.4"/>
<path class="st0" d="M164.1,287.1c-9.1,0-16.5-2.9-22.1-8.7c-5.5-5.8-8.3-13.4-8.3-22.8c0-9.4,2.8-17,8.3-22.8
	c5.5-5.8,13-8.7,22.1-8.7c9.1,0,16.5,2.9,22.1,8.7c5.6,5.8,8.4,13.4,8.4,22.8c0,9.4-2.8,17-8.4,22.8
	C180.7,284.2,173.2,287.1,164.1,287.1 M164.2,234.8c-5,0-9.5,1.7-13.2,5.2c-3.8,3.4-5.7,8.7-5.7,15.6c0,7,1.9,12.3,5.7,15.7
	c3.8,3.5,8.2,5.2,13.2,5.2c5,0,9.5-1.8,13.2-5.2c3.7-3.4,5.6-8.7,5.6-15.7c0-7-1.9-12.2-5.6-15.6
	C173.6,236.5,169.2,234.8,164.2,234.8"/>
<path class="st0" d="M227.8,287.1c-6.6,0-11.9-2.3-15.7-6.7c-3.8-4.4-5.7-10.1-5.7-16.7v-38.4h11.6v37.2c0,9.3,4.1,13.8,12.4,13.8
	c6.6,0,12.9-3.7,18.7-10.9v-40.1h11.6V286h-10.2l-1.4-7.9l0-0.9C242.8,283.8,235.7,287.1,227.8,287.1"/>
<path class="st0" d="M301.3,287.1c-7.7,0-14.5-2.9-20.2-8.6c-5.7-5.7-8.6-13.4-8.6-22.9c0-9.5,2.9-17.3,8.6-22.9
	c5.7-5.7,12.5-8.6,20.2-8.6c7.5,0,14.1,2.8,19.6,8.4v-33h11.6V286h-10.2l-1.3-7.3C315.4,284.3,308.8,287.1,301.3,287.1 M302.8,235
	c-5.6,0-10.2,1.8-13.6,5.4c-3.4,3.6-5.1,8.7-5.1,15.3c0,6.6,1.7,11.7,5.1,15.3c3.4,3.6,8,5.4,13.6,5.4c6.8,0,12.9-2.9,18-8.5v-24.2
	C315.7,237.9,309.6,235,302.8,235"/>
<path class="st0" d="M349,225.3h11.6V286H349V225.3z M348.6,201.2H361v12.4h-12.4V201.2z"/>
<path class="st0" d="M383.1,286v-50.6h-10.9v-10.1h10.9V219c0-6.9,1.8-12.1,5.4-15.5c3.5-3.4,7.6-5.1,12.2-5.1c4.5,0,8.5,1,12.1,3
	l0.2,0.1v9.5h-1.3c-3-1-5.8-1.5-8.5-1.5c-2.6,0-4.7,0.7-6.2,2.1c-1.5,1.4-2.3,4-2.3,7.7v6h18.3v10.1h-18.3V286H383.1z"/>
<polygon class="st0" points="434.3,312.9 444.6,286.5 419.7,225.3 432.1,225.3 450.8,272.3 469.9,225.3 482.4,225.3 446.1,312.9 "/>
<path class="st0" d="M341,121.5c-2.8,14.2-13.6,26.1-28.6,29.6c-8.3,2-16.6,1-23.9-2.1c0.2,20.4-13.7,39-34.4,43.9
	c-13.9,3.3-27.7-0.3-38.1-8.6c-3.5,4.3-7.6,8.1-12.2,11.3c16.9,14.6,41.2,19.4,63.3,10.3c17.7-7.3,30.1-21.9,35.2-38.9
	c4.4,0.1,8.8-0.4,13.3-1.4c17-4,30.2-15.7,36.8-30.6L341,121.5z"/>
<path class="st0" d="M353.8,95.5c-9-25.5-35.9-40.7-62.8-34.3c-4.4,1-8.6,2.6-12.4,4.6c3.7,4,6.9,8.5,9.6,13.5
	c2.1-1,4.4-1.7,6.8-2.3c18.3-4.3,36.6,5.4,43.7,22.1l-6.8,1.6l21,24.9l7.8-31.7L353.8,95.5z"/>
<path class="st1" d="M286.1,87.7c-3.7-9.1-9.4-16.8-16.4-22.8c0.1,0,0.1,0,0.2,0l1.9-14.7l-11.5-5.6l-8.5,9.4
	c-6.9-2.7-14.2-4.1-21.7-4.2l-5.9-12.8l-12.7,1.8l-2.6,14.6c-0.9,0.3-1.7,0.6-2.6,1c-6.2,2.5-11.7,6-16.5,10.1l-13.6-5l-7.7,10.3
	l7.8,11.2c-2.2,3.9-4,8.1-5.2,12.3c-4.4-0.1-8.8,0.4-13.3,1.4c-17,4-30.2,15.7-36.8,30.6l11.4,13.5c2.8-14.2,13.6-26.1,28.6-29.6
	c8.3-2,16.6-1,23.9,2.1c-0.2-20.4,13.7-39,34.4-43.9c24-5.7,48,9.2,53.7,33.2c5.7,24-9.2,48-33.2,53.7c-11.4,2.7-22.7,0.7-32.2-4.6
	c-1.5,15.8-12.8,29.7-29.2,33.5c-18.3,4.3-36.6-5.4-43.7-22.1l6.8-1.6l-21-24.9l-7.8,31.7l6.8-1.6c9,25.5,35.9,40.7,62.8,34.3
	c16.1-3.8,28.8-14.5,35.7-28.2c11.3,2.2,23.3,1.2,34.8-3.5C284.1,154.6,299,118.9,286.1,87.7"/>
</svg>
