<?xml version="1.0" encoding="UTF-8" standalone="no"?>
<!-- Generator: Adobe Illustrator 16.0.4, SVG Export Plug-In . SVG Version: 6.00 Build 0)  -->

<svg
   xmlns:dc="http://purl.org/dc/elements/1.1/"
   xmlns:cc="http://creativecommons.org/ns#"
   xmlns:rdf="http://www.w3.org/1999/02/22-rdf-syntax-ns#"
   xmlns:svg="http://www.w3.org/2000/svg"
   xmlns="http://www.w3.org/2000/svg"
   xmlns:sodipodi="http://sodipodi.sourceforge.net/DTD/sodipodi-0.dtd"
   xmlns:inkscape="http://www.inkscape.org/namespaces/inkscape"
   version="1.1"
   id="AW"
   x="0px"
   y="0px"
   width="571.89099"
   height="206.328"
   viewBox="0 0 571.89097 206.328"
   enable-background="new 0 0 1190.55 841.89"
   xml:space="preserve"
   inkscape:version="0.91 r13725"
   sodipodi:docname="juju-logo.svg"><metadata
     id="metadata37"><rdf:RDF><cc:Work
         rdf:about=""><dc:format>image/svg+xml</dc:format><dc:type
           rdf:resource="http://purl.org/dc/dcmitype/StillImage" /><dc:title></dc:title></cc:Work></rdf:RDF></metadata><defs
     id="defs35" /><sodipodi:namedview
     pagecolor="#ffffff"
     bordercolor="#666666"
     borderopacity="1"
     objecttolerance="10"
     gridtolerance="10"
     guidetolerance="10"
     inkscape:pageopacity="0"
     inkscape:pageshadow="2"
     inkscape:window-width="934"
     inkscape:window-height="480"
     id="namedview33"
     showgrid="false"
     fit-margin-top="0"
     fit-margin-left="0"
     fit-margin-right="0"
     fit-margin-bottom="0"
     inkscape:zoom="0.28032165"
     inkscape:cx="-138.56731"
     inkscape:cy="107.41699"
     inkscape:window-x="0"
     inkscape:window-y="0"
     inkscape:window-maximized="0"
     inkscape:current-layer="AW" /><g
     id="g3"
     transform="translate(-309.32999,-322.034)"><g
       id="g5"><circle
         cx="408.54199"
         cy="421.246"
         r="99.211998"
         id="circle7"
         style="fill:#e95420" /><g
         id="g9"><circle
           cx="414.21201"
           cy="415.57599"
           r="6.1420002"
           id="circle11"
           style="fill:#ffffff" /><path
           d="m 419.881,404.237 -11.338,0 0,-45.354 c 0,-10.94 8.902,-19.842 19.842,-19.842 10.941,0 19.842,8.902 19.842,19.842 l 0,11.339 -11.338,-10e-4 0,-11.338 c 0,-2.272 -0.885,-4.408 -2.491,-6.014 -1.606,-1.604 -3.741,-2.491 -6.013,-2.491 -4.689,0 -8.504,3.816 -8.504,8.505 l 0,45.354 z"
           id="path13"
           inkscape:connector-curvature="0"
           style="fill:#ffffff" /><path
           d="m 456.731,424.079 c -10.941,0 -19.843,-8.9 -19.843,-19.842 l 0,-28.345 11.338,0 0,28.345 c 0,4.69 3.815,8.505 8.504,8.505 4.689,0 8.503,-3.814 8.503,-8.505 l 0,-28.345 11.339,0 0,28.345 c 0,5.3 -2.064,10.283 -5.812,14.031 -3.745,3.749 -8.728,5.811 -14.029,5.811 z"
           id="path15"
           inkscape:connector-curvature="0"
           style="fill:#ffffff" /><circle
           cx="357.51901"
           cy="483.60501"
           r="6.1420002"
           id="circle17"
           style="fill:#ffffff" /><path
           d="m 363.188,472.269 -11.338,0 0,-62.361 c 0,-10.941 8.901,-19.842 19.843,-19.842 10.941,0 19.842,8.901 19.842,19.842 l 0,11.339 -11.339,0 0,-11.339 c 0,-2.272 -0.884,-4.408 -2.491,-6.014 -1.606,-1.604 -3.742,-2.491 -6.013,-2.491 -4.689,0 -8.504,3.816 -8.504,8.505 l 0,62.361 z"
           id="path19"
           inkscape:connector-curvature="0"
           style="fill:#ffffff" /><path
           d="m 400.039,475.103 c -10.941,0 -19.843,-8.901 -19.843,-19.844 l 0,-28.345 11.339,0 0,28.347 c 0,4.687 3.815,8.503 8.504,8.503 4.689,0 8.504,-3.816 8.504,-8.505 l 0,-28.345 11.338,0 0,28.347 c 0,5.298 -2.064,10.28 -5.812,14.029 -3.748,3.748 -8.731,5.813 -14.03,5.813 z"
           id="path21"
           inkscape:connector-curvature="0"
           style="fill:#ffffff" /></g></g><g
       id="g23"><path
         d="m 620.714,446.453 c 0,6.743 -0.677,12.978 -2.021,18.707 -1.351,5.731 -3.678,10.719 -6.979,14.966 -3.307,4.247 -7.686,7.553 -13.146,9.909 -5.46,2.358 -12.306,3.541 -20.528,3.541 -4.854,0 -9.304,-0.44 -13.348,-1.315 -4.044,-0.879 -7.619,-1.921 -10.719,-3.135 -3.104,-1.214 -5.698,-2.494 -7.787,-3.842 -2.092,-1.348 -3.675,-2.562 -4.753,-3.641 l 6.472,-11.124 c 1.214,1.08 2.731,2.26 4.551,3.539 1.82,1.283 3.944,2.461 6.371,3.539 2.426,1.081 5.122,1.956 8.09,2.63 2.964,0.675 6.2,1.011 9.708,1.011 10.38,0 18.031,-2.731 22.955,-8.19 4.92,-5.461 7.381,-14.797 7.381,-28.011 l 0,-94.652 13.754,0 0,96.068 z"
         id="path25"
         inkscape:connector-curvature="0" /><path
         d="m 729.256,486.901 c -3.911,1.081 -9.171,2.293 -15.774,3.641 -6.608,1.347 -14.697,2.021 -24.27,2.021 -7.822,0 -14.359,-1.146 -19.619,-3.438 -5.258,-2.291 -9.504,-5.526 -12.74,-9.708 -3.236,-4.178 -5.562,-9.234 -6.979,-15.169 -1.415,-5.931 -2.123,-12.47 -2.123,-19.616 l 0,-58.652 13.146,0 0,54.403 c 0,7.417 0.538,13.688 1.618,18.81 1.078,5.126 2.832,9.271 5.258,12.438 2.429,3.169 5.562,5.46 9.405,6.875 3.843,1.418 8.526,2.125 14.056,2.125 6.201,0 11.594,-0.336 16.18,-1.012 4.584,-0.672 7.483,-1.28 8.697,-1.82 l 0,-91.819 13.146,0 0,100.921 z"
         id="path27"
         inkscape:connector-curvature="0" /><path
         d="m 739.185,528.362 c -1.483,0 -3.338,-0.203 -5.562,-0.606 -2.226,-0.405 -3.874,-0.88 -4.955,-1.417 l 1.82,-10.719 c 0.945,0.269 2.225,0.537 3.842,0.809 1.619,0.27 3.17,0.405 4.652,0.405 7.954,0 13.246,-2.226 15.876,-6.675 2.63,-4.449 3.944,-11.124 3.944,-20.022 l 0,-104.157 13.146,0 0,103.55 c 0,13.213 -2.497,22.986 -7.484,29.325 -4.989,6.336 -13.418,9.507 -25.279,9.507 z"
         id="path29"
         inkscape:connector-curvature="0" /><path
         d="m 881.221,486.901 c -3.913,1.081 -9.171,2.293 -15.774,3.641 -6.608,1.347 -14.698,2.021 -24.27,2.021 -7.822,0 -14.359,-1.146 -19.619,-3.438 -5.258,-2.291 -9.505,-5.526 -12.74,-9.708 -3.236,-4.178 -5.562,-9.234 -6.979,-15.169 -1.416,-5.931 -2.123,-12.47 -2.123,-19.616 l 0,-58.652 13.146,0 0,54.403 c 0,7.417 0.535,13.688 1.617,18.81 1.078,5.126 2.831,9.271 5.258,12.438 2.428,3.169 5.562,5.46 9.404,6.875 3.844,1.418 8.527,2.125 14.057,2.125 6.199,0 11.594,-0.336 16.18,-1.012 4.584,-0.672 7.483,-1.28 8.697,-1.82 l 0,-91.819 13.146,0 0,100.921 z"
         id="path31"
         inkscape:connector-curvature="0" /></g></g></svg>